<svg width="34" height="29" viewBox="0 0 34 29" fill="none" xmlns="http://www.w3.org/2000/svg">
<path d="M25 27C23 28.5 11.0002 28.5 8.50004 27C5.9999 25.5 5.00005 21.0117 8.00002 17C11 12.9883 10.9365 10.4999 16.5 10.4999C22.2484 10.4999 22.1234 13.4883 25 17.5C27.8767 21.5117 27.0001 25.5 25 27Z" fill="currentColor"/>
<ellipse cx="4.04612" cy="10.9102" rx="3.5" ry="4.5" transform="rotate(-7.33843 4.04612 10.9102)" fill="currentColor"/>
<ellipse cx="3.5" cy="4.5" rx="3.5" ry="4.5" transform="matrix(-0.991809 -0.12773 -0.12773 0.991809 33.0922 7.8941)" fill="currentColor"/>
<ellipse cx="12.0461" cy="4.91019" rx="3.5" ry="4.5" transform="rotate(-7.33843 12.0461 4.91019)" fill="currentColor"/>
<ellipse cx="3.5" cy="4.5" rx="3.5" ry="4.5" transform="matrix(-0.991809 -0.12773 -0.12773 0.991809 25.0922 0.894104)" fill="currentColor"/>
</svg>
