<svg width="30" height="30" viewBox="0 0 30 30" fill="none" xmlns="http://www.w3.org/2000/svg">
<rect width="30" height="30" rx="15" fill="#28303F" fill-opacity="0.4"/>
<g clip-path="url(#clip0_191_118)">
<path d="M8.52689 18.8748C8.52689 18.1788 8.58458 17.442 8.67676 16.7089H7.95842C3.66883 15.987 6.48596 9.76908 8.52685 8.04545C10.1309 6.69078 13.0134 6.07129 14.9614 6.07129C16.9095 6.07129 19.792 6.69078 21.396 8.04545C23.437 9.76908 26.254 15.987 21.9644 16.7089H21.2461C21.3382 17.442 21.396 18.1788 21.396 18.8748C21.396 23.2065 18.5362 23.9285 14.9614 23.9285C11.3867 23.9285 8.52689 23.2065 8.52689 18.8748Z" stroke="#28303F" stroke-width="1.72" stroke-linecap="round"/>
<path d="M9.95663 10.9335C9.95663 10.9335 8.52673 15.4096 8.52673 18.875C8.52673 23.2067 11.3865 23.9287 14.9613 23.9287C18.536 23.9287 21.3961 23.2067 21.3961 18.875C21.3961 15.4096 19.9662 10.9335 19.9662 10.9335" stroke="#28303F" stroke-width="1.72" stroke-linecap="round" stroke-linejoin="round"/>
<path d="M17.4615 13.8337V14.5487" stroke="#28303F" stroke-width="1.72" stroke-linecap="round" stroke-linejoin="round"/>
<path d="M12.4617 13.8337V14.5487" stroke="#28303F" stroke-width="1.72" stroke-linecap="round" stroke-linejoin="round"/>
<path d="M14.0961 18.5132C14.2619 18.8955 14.6438 19.2395 14.8797 19.3966C14.9261 19.4276 14.9973 19.4276 15.0437 19.3966C15.2796 19.2395 15.6615 18.8955 15.8273 18.5132C15.8447 18.473 15.819 18.4302 15.7638 18.4131C15.6052 18.364 15.3162 18.3019 14.9617 18.3019C14.6072 18.3019 14.3182 18.364 14.1596 18.4131C14.1044 18.4302 14.0787 18.473 14.0961 18.5132Z" stroke="#28303F" stroke-width="1.72" stroke-linecap="round" stroke-linejoin="round"/>
</g>
<defs>
<clipPath id="clip0_191_118">
<rect width="20" height="20" fill="white" transform="translate(5 5)"/>
</clipPath>
</defs>
</svg>
